<svg width="50" height="50" viewBox="0 0 50 50" fill="none" xmlns="http://www.w3.org/2000/svg">
<path d="M41.8096 22.9316L47.6426 11.7958C48.1033 10.9154 48.1956 9.88803 47.899 8.93961C47.6024 7.99119 46.9412 7.19939 46.061 6.73834C45.1807 6.27728 44.1533 6.18472 43.2048 6.48101C42.2563 6.77729 41.4643 7.43816 41.0029 8.3183L35.1699 19.454C34.8906 19.984 34.7432 20.5736 34.7403 21.1727C34.7374 21.7718 34.8791 22.3628 35.1533 22.8954L33.3467 26.3456L30.8184 25.082C30.6396 24.9928 30.4335 24.9755 30.2423 25.0334C30.0511 25.0913 29.8893 25.2201 29.79 25.3935L24.9912 33.791C24.2694 35.0564 23.8809 36.4846 23.8623 37.9413C23.2402 37.6505 22.5618 37.4998 21.875 37.4999C21.8418 37.4999 21.8096 37.5019 21.7764 37.5029C21.6028 36.8319 21.2116 36.2375 20.6639 35.8128C20.1162 35.3881 19.4431 35.1572 18.75 35.1562V28.9062H19.5312C21.8096 28.9035 23.9939 27.9972 25.605 26.3862C27.216 24.7751 28.1223 22.5908 28.125 20.3124V17.1874C28.1242 16.5661 27.877 15.9704 27.4376 15.5311C26.9983 15.0917 26.4026 14.8445 25.7812 14.8437H19.7266C18.3539 14.8404 16.9997 15.1604 15.7737 15.7776C14.5476 16.3948 13.484 17.2919 12.6689 18.3964C11.7944 18.1124 10.8805 17.9681 9.96094 17.9687H3.90625C3.2849 17.9695 2.68924 18.2167 2.24988 18.6561C1.81052 19.0954 1.56332 19.6911 1.5625 20.3124V23.4374C1.56519 25.7158 2.47146 27.9001 4.08252 29.5112C5.69358 31.1222 7.87787 32.0285 10.1562 32.0312H14.0625V35.2548C13.5217 35.3955 13.0284 35.6784 12.6338 36.0741C12.2204 35.9477 11.7852 35.9084 11.3558 35.9587C10.9264 36.009 10.5121 36.1479 10.1391 36.3665C9.76605 36.5851 9.44246 36.8787 9.18875 37.2288C8.93503 37.5789 8.7567 37.9778 8.66504 38.4003C8.26425 38.2863 7.8447 38.2537 7.4311 38.3043C7.0175 38.355 6.61821 38.4878 6.25675 38.6951C5.89529 38.9025 5.57896 39.18 5.3264 39.5114C5.07383 39.8428 4.89014 40.2214 4.78613 40.6249H3.125V42.1874H5.46875C5.57135 42.1875 5.67296 42.1673 5.76775 42.128C5.86255 42.0888 5.94869 42.0312 6.02124 41.9587C6.09379 41.8861 6.15133 41.8 6.19059 41.7052C6.22984 41.6104 6.25003 41.5088 6.25 41.4062C6.25 40.9918 6.41462 40.5944 6.70765 40.3013C7.00067 40.0083 7.3981 39.8437 7.8125 39.8437C8.2269 39.8437 8.62433 40.0083 8.91735 40.3013C9.21038 40.5944 9.375 40.9918 9.375 41.4062H10.9375C10.938 40.6634 10.6726 39.945 10.1895 39.3808C10.1418 39.1535 10.1455 38.9184 10.2002 38.6926C10.255 38.4669 10.3595 38.2562 10.506 38.076C10.6525 37.8958 10.8374 37.7506 11.0473 37.6509C11.2571 37.5512 11.4865 37.4997 11.7187 37.4999C11.752 37.4999 11.7842 37.5029 11.8164 37.5048C12.2125 37.5306 12.584 37.7057 12.8559 37.9948C13.1278 38.284 13.2799 38.6655 13.2812 39.0624H14.8437C14.8441 38.2817 14.5513 37.5293 14.0234 36.954C14.3045 36.7788 14.6342 36.6979 14.9645 36.7232C15.2947 36.7485 15.6083 36.8787 15.8594 37.0947C15.7045 37.4711 15.6249 37.8742 15.625 38.2812H17.1875C17.1873 37.9093 17.3198 37.5496 17.5612 37.2668C17.8025 36.9839 18.1369 36.7964 18.5041 36.738C18.8713 36.6797 19.2474 36.7542 19.5645 36.9483C19.8817 37.1424 20.1192 37.4433 20.2344 37.7968C19.3403 38.132 18.5697 38.7319 18.0253 39.5163C17.4809 40.3008 17.1887 41.2326 17.1875 42.1874H18.75C18.7498 41.5419 18.9496 40.9121 19.322 40.3848C19.6943 39.8574 20.2208 39.4583 20.8292 39.2424C21.4376 39.0265 22.0979 39.0043 22.7194 39.1789C23.3409 39.3536 23.893 39.7165 24.2998 40.2177C23.8032 40.4854 23.3883 40.8824 23.099 41.3667C22.8096 41.851 22.6567 42.4045 22.6562 42.9687H24.2187C24.2187 42.5543 24.3834 42.1569 24.6764 41.8638C24.9694 41.5708 25.3668 41.4062 25.7812 41.4062C26.1956 41.4062 26.5931 41.5708 26.8861 41.8638C27.1791 42.1569 27.3437 42.5543 27.3437 42.9687H28.9062C28.9064 42.5178 28.8085 42.0722 28.6191 41.663C28.9498 41.494 29.3158 41.406 29.6871 41.4062C30.0584 41.4064 30.4244 41.4947 30.7549 41.664C30.5663 42.0731 30.4687 42.5182 30.4687 42.9687H32.0312C32.0312 42.5543 32.1959 42.1569 32.4889 41.8638C32.7819 41.5708 33.1793 41.4062 33.5937 41.4062C34.0081 41.4062 34.4056 41.5708 34.6986 41.8638C34.9916 42.1569 35.1562 42.5543 35.1562 42.9687H36.7187C36.7189 42.5617 36.6392 42.1586 36.4844 41.7822C36.7112 41.5878 36.989 41.4625 37.2849 41.4212C37.5808 41.3799 37.8823 41.4243 38.1537 41.5492C38.4251 41.6741 38.6549 41.8742 38.816 42.1258C38.9771 42.3774 39.0626 42.6699 39.0625 42.9687C39.0625 43.0713 39.0827 43.1729 39.1219 43.2677C39.1612 43.3625 39.2187 43.4486 39.2913 43.5212C39.3638 43.5937 39.4499 43.6513 39.5447 43.6905C39.6395 43.7298 39.7411 43.75 39.8437 43.7499H46.0937V42.1874H40.5264C40.4099 41.7361 40.194 41.3166 39.8944 40.9595C39.5947 40.6025 39.219 40.317 38.7948 40.1241C38.3705 39.9311 37.9084 39.8355 37.4424 39.8442C36.9764 39.853 36.5183 39.9659 36.1016 40.1748C36.2917 39.8728 36.4629 39.5594 36.6143 39.2363L40.5518 30.7988C40.6376 30.6143 40.6481 30.4036 40.5812 30.2114C40.5143 30.0193 40.3752 29.8608 40.1934 29.7695L37.25 28.2978L39.0332 24.8935C39.6177 24.8079 40.1737 24.5857 40.6562 24.2448C41.1386 23.9039 41.5337 23.454 41.8096 22.9316ZM17.1875 35.5771C17.0515 35.6558 16.9216 35.7446 16.7988 35.8427C16.4535 35.5663 16.0534 35.3662 15.625 35.2558V31.2499C15.625 31.1473 15.6048 31.0457 15.5656 30.9509C15.5263 30.8561 15.4688 30.77 15.3962 30.6975C15.3237 30.6249 15.2376 30.5674 15.1428 30.5281C15.048 30.4889 14.9464 30.4687 14.8437 30.4687H13.2812C11.4171 30.4665 9.62992 29.7251 8.31177 28.4069C6.99362 27.0888 6.25214 25.3016 6.25 23.4374V22.6562H4.6875V23.4374C4.68726 24.7055 4.96809 25.9579 5.50979 27.1044C6.05149 28.251 6.84059 29.2632 7.82032 30.0683C6.44859 29.5835 5.2607 28.6857 4.41993 27.4983C3.57916 26.3109 3.12679 24.8923 3.125 23.4374V20.3124C3.12527 20.1053 3.20767 19.9068 3.35412 19.7603C3.50058 19.6139 3.69913 19.5315 3.90625 19.5312H9.96094C11.8768 19.5335 13.7136 20.2956 15.0684 21.6503C16.4231 23.0051 17.1852 24.8419 17.1875 26.7578V35.5771ZM14.1523 19.0341C14.8286 18.2103 15.6796 17.5472 16.6437 17.0927C17.6077 16.6382 18.6607 16.4037 19.7266 16.4062H25.7812C25.9884 16.4065 26.1869 16.4889 26.3334 16.6353C26.4798 16.7818 26.5622 16.9803 26.5625 17.1874V20.3124C26.5607 21.768 26.1079 23.1872 25.2664 24.3749C24.4249 25.5625 23.2359 26.4601 21.8633 26.9443C22.8421 26.1379 23.6307 25.1254 24.1729 23.979C24.7152 22.8326 24.9976 21.5806 25 20.3124V19.5312H23.4375V20.3124C23.4342 21.7659 22.9821 23.1829 22.1431 24.3697C21.3041 25.5565 20.1191 26.4554 18.75 26.9433V26.7578C18.7489 25.1759 18.3213 23.6236 17.5121 22.2644C16.703 20.9051 15.5423 19.7892 14.1523 19.0341ZM38.8144 30.8271L35.1982 38.5761C34.9718 39.061 34.6907 39.5184 34.3604 39.9394C33.9171 39.8269 33.4544 39.8134 33.0053 39.8998C32.5562 39.9862 32.1316 40.1705 31.7617 40.4394C31.1403 40.0493 30.4212 39.8427 29.6875 39.8437C29.6524 39.8437 29.6172 39.8456 29.582 39.8466L31.9355 35.5302L30.5645 34.7822L27.5156 40.371C27.0469 40.0564 26.5013 39.8755 25.9375 39.8476C25.816 39.6363 25.6782 39.4349 25.5254 39.2451C25.2483 37.6372 25.5393 35.983 26.3486 34.5663L30.7803 26.8105L32.6211 27.7304L31.1435 30.5517C31.0104 30.8055 30.9286 31.0831 30.9028 31.3685C30.877 31.6539 30.9076 31.9416 30.993 32.2152C31.0784 32.4888 31.2169 32.7429 31.4005 32.9629C31.5841 33.183 31.8092 33.3647 32.0631 33.4977C32.317 33.6308 32.5945 33.7125 32.88 33.7382C33.1654 33.7639 33.4531 33.7331 33.7267 33.6476C34.0002 33.5621 34.2542 33.4236 34.4742 33.2399C34.6942 33.0562 34.8759 32.831 35.0088 32.5771L36.5244 29.6826L38.8144 30.8271ZM33.625 31.8515C33.5722 31.9521 33.4928 32.0363 33.3956 32.095C33.2983 32.1537 33.1868 32.1846 33.0732 32.1845C32.9517 32.1844 32.8331 32.148 32.7324 32.08C32.6046 31.9956 32.5128 31.8666 32.4749 31.7182C32.437 31.5698 32.4557 31.4126 32.5273 31.2773L36.2402 24.1874C36.479 24.3678 36.7387 24.5186 37.0137 24.6367C37.1203 24.6828 37.2291 24.7235 37.3398 24.7587L33.625 31.8515ZM37.6289 23.2011C37.3521 23.0823 37.1029 22.9076 36.8969 22.6879C36.6908 22.4682 36.5324 22.2083 36.4316 21.9245C36.3307 21.6407 36.2896 21.3392 36.3108 21.0387C36.3319 20.7383 36.415 20.4455 36.5547 20.1786L42.3877 9.04292C42.6448 8.55742 43.0746 8.18597 43.5922 8.00191C44.1099 7.81785 44.6777 7.83457 45.1836 8.04876C45.4603 8.16758 45.7096 8.34231 45.9156 8.56199C46.1216 8.78167 46.2801 9.04155 46.3809 9.32535C46.4818 9.60914 46.5229 9.91072 46.5017 10.2112C46.4805 10.5116 46.3975 10.8044 46.2578 11.0712L40.4248 22.207C40.1677 22.6925 39.7379 23.0639 39.2203 23.248C38.7026 23.432 38.1348 23.4153 37.6289 23.2011H37.6289Z" fill="#00730C"/>
</svg>
