<svg width="21" height="22" viewBox="0 0 21 22" fill="none" xmlns="http://www.w3.org/2000/svg">
<path d="M2.5 12.6751C2.5 13.0632 2.81454 13.3778 3.20261 13.3778H16.1225L11.6904 17.8059C11.5556 17.9407 11.4861 18.1204 11.4861 18.3001C11.4861 18.4799 11.5556 18.6596 11.6904 18.7944C11.9641 19.0681 12.4093 19.0681 12.683 18.7944L18.3039 13.1694C18.5654 12.908 18.5654 12.4423 18.3039 12.1768L12.6789 6.55586C12.4052 6.28216 11.96 6.28216 11.6863 6.55586C11.4126 6.82955 11.4126 7.27481 11.6863 7.5485L16.1144 11.9766H3.19853C2.81046 11.9725 2.5 12.2871 2.5 12.6751Z" fill="#00730C"/>
</svg>
