<svg width="21" height="20" viewBox="0 0 21 20" fill="none" xmlns="http://www.w3.org/2000/svg">
<mask id="mask0_673_25652" style="mask-type:alpha" maskUnits="userSpaceOnUse" x="0" y="0" width="21" height="20">
<rect x="0.5" width="20" height="20" fill="#C4C4C4"/>
</mask>
<g mask="url(#mask0_673_25652)">
<path d="M10.8296 3.50994C9.78271 3.67327 8.95903 4.28648 8.52329 5.22636C8.20976 5.90834 8.14599 6.32384 8.14599 7.73652V8.73657H7.24527C6.74575 8.73657 6.31266 8.74803 6.27812 8.76235C6.24092 8.77955 6.18512 8.81966 6.15589 8.85405C6.1001 8.91709 6.1001 8.93715 6.1001 10.2381C6.1001 11.4473 6.10541 11.5648 6.14792 11.6192C6.23826 11.7424 6.2728 11.7453 7.22667 11.7453H8.14599V14.84V17.9347L8.22304 18.0264L8.3001 18.121L9.53826 18.1296C10.6303 18.1353 10.7871 18.1325 10.8588 18.0923C11.0235 18.0006 11.0156 18.1439 11.0156 14.797V11.7453H12.0784C12.8436 11.7453 13.1571 11.7367 13.2076 11.7109C13.3537 11.6393 13.3537 11.6278 13.3537 10.2295V8.93715L13.2767 8.84545L13.1996 8.75089L12.1049 8.7423L11.0129 8.7337L11.0209 7.80815L11.0288 6.88547L11.1086 6.71641C11.1962 6.53302 11.3424 6.4098 11.539 6.35249C11.5948 6.3353 11.988 6.3181 12.4105 6.31237C12.8356 6.30378 13.2102 6.29232 13.2421 6.28372C13.2767 6.27512 13.3351 6.23501 13.3697 6.19489L13.4334 6.12039V4.8825C13.4334 3.66754 13.4334 3.64462 13.3776 3.58158C13.3484 3.54719 13.2926 3.50707 13.2554 3.48988C13.1491 3.4469 11.1272 3.46409 10.8296 3.50994Z" fill="white"/>
</g>
</svg>
