<svg width="50" height="50" viewBox="0 0 50 50" fill="none" xmlns="http://www.w3.org/2000/svg">
<g clip-path="url(#clip0_673_53344)">
<path d="M49.268 46.9897H48.6015C48.267 43.3821 45.4865 40.4463 41.8991 39.9252C41.7835 38.325 41.2411 36.8025 40.313 35.4876C40.0795 35.1573 39.6229 35.0783 39.2925 35.3114C38.9622 35.5448 38.8832 36.0014 39.1163 36.3318C39.994 37.5754 40.4579 39.0421 40.4579 40.5741V40.5882C40.4579 40.9754 40.7597 41.2959 41.1465 41.3191C44.278 41.5064 46.7808 43.9368 47.1294 46.9897H2.86789C3.21655 43.9368 5.71938 41.5064 8.85086 41.3191C9.23767 41.2959 9.53941 40.9754 9.53941 40.5882V40.5741C9.53941 36.513 12.8433 33.2091 16.9044 33.2091C16.9907 33.2091 17.0765 33.211 17.1627 33.2141C17.1658 33.2141 17.1688 33.2148 17.1722 33.2148C17.173 33.2148 17.1738 33.2144 17.1745 33.2144C17.3988 33.2228 17.6212 33.2408 17.8391 33.2694C18.1057 33.3045 18.3704 33.19 18.5284 32.9714C20.126 30.754 22.7081 29.4303 25.436 29.4303C28.1349 29.4303 30.7022 30.7322 32.3032 32.9131C32.4413 33.1008 32.6607 33.2121 32.8938 33.2121C32.9315 33.2121 32.9693 33.211 33.0078 33.2102C33.0368 33.2099 33.0658 33.2091 33.0956 33.2091C34.3967 33.2091 35.6785 33.5547 36.8023 34.2085C37.1517 34.4119 37.5999 34.2936 37.8033 33.9442C38.007 33.5948 37.8883 33.1465 37.5389 32.9428C36.2373 32.1856 34.7595 31.7732 33.2546 31.7462C31.9126 30.0574 30.0602 28.8592 28.0094 28.3076C27.985 26.0424 27.7687 23.8349 27.3773 21.8905C27.2976 21.4942 26.9115 21.237 26.5152 21.3168C26.1185 21.3969 25.8617 21.7829 25.9418 22.1793C26.2981 23.9516 26.503 25.9581 26.5411 28.0284C26.1757 27.9872 25.8068 27.9658 25.436 27.9658C22.382 27.9658 19.4839 29.381 17.5987 31.7721C17.5407 31.7675 17.4824 31.7652 17.424 31.7618C12.2177 28.0455 9.26285 24.1709 9.31206 21.1115C9.33723 19.5521 10.1444 18.151 11.7123 16.9375L12.2475 17.9209C12.4504 18.2993 12.7895 18.5748 13.2027 18.6968C13.3537 18.7415 13.5082 18.7636 13.6616 18.7636C13.9236 18.7636 14.1834 18.6991 14.4207 18.5721C14.4222 18.5713 14.4234 18.5706 14.4249 18.5698L16.4883 17.4479C17.2649 17.0241 17.5522 16.0479 17.1295 15.2735L16.6248 14.3458C18.4116 13.7728 19.9738 13.7732 21.278 14.3485C22.8786 15.0546 24.1524 16.6361 25.0637 19.0493C25.1743 19.3423 25.4528 19.5227 25.7488 19.5227C25.8347 19.5227 25.922 19.5078 26.0075 19.4754C26.3855 19.3328 26.5766 18.9101 26.4336 18.5317C25.378 15.7374 23.8422 13.8793 21.8689 13.0087C20.1595 12.2546 18.1587 12.2676 15.9149 13.0408L15.345 11.9929C15.6464 10.9599 15.5312 9.87497 15.02 8.93732L12.1574 3.66922C11.6451 2.72585 10.7922 2.0373 9.75647 1.73098C8.7204 1.42427 7.63016 1.53833 6.68602 2.05179C5.74188 2.56411 5.05295 3.41745 4.74625 4.45429C4.43993 5.49074 4.5536 6.58098 5.06592 7.52436L7.92847 12.7898C8.44231 13.7343 9.29604 14.4232 10.3317 14.7299C10.4008 14.7505 10.4706 14.7669 10.5404 14.7837L11.0043 15.6367C8.94318 17.1614 7.88155 18.9925 7.84798 21.0879C7.78046 25.2879 11.8881 29.3444 15.1798 31.9144C11.3407 32.6777 8.38966 35.9381 8.0986 39.9252C4.51088 40.4463 1.73035 43.3821 1.3958 46.9897H0.73204C0.327683 46.9897 0 47.3177 0 47.7221C0 48.1265 0.327683 48.4541 0.73204 48.4541H49.268C49.6723 48.4541 50 48.1265 50 47.7221C50 47.3177 49.6723 46.9897 49.268 46.9897ZM14.5103 13.5233L15.8436 15.9743C15.8794 16.0403 15.8535 16.1265 15.7875 16.1624L13.728 17.282C13.6822 17.306 13.6398 17.2991 13.6181 17.2927C13.5933 17.2854 13.5597 17.2686 13.5365 17.2251L12.2322 14.8287C12.6373 14.7517 13.0318 14.6117 13.4033 14.4095C13.8283 14.1783 14.2006 13.8777 14.5103 13.5233ZM10.7475 13.3257C10.0864 13.1301 9.54208 12.691 9.21516 12.0902L6.353 6.82512C6.02722 6.22507 5.95512 5.5308 6.15082 4.86971C6.34613 4.20824 6.78444 3.66465 7.38449 3.33887C7.38487 3.33887 7.38525 3.33887 7.38564 3.33849C7.76443 3.1325 8.181 3.02759 8.60329 3.02759C8.84933 3.02759 9.09767 3.06307 9.34143 3.13517C10.0021 3.33086 10.5453 3.76879 10.8711 4.36846L13.7341 9.63732C14.0602 10.2358 14.1327 10.9294 13.9374 11.5904C13.9175 11.6572 13.895 11.722 13.8702 11.7865C13.8691 11.79 13.8668 11.7934 13.8653 11.7972C13.8584 11.8151 13.8515 11.8342 13.8443 11.8529C13.62 12.3957 13.2225 12.8409 12.7037 13.1228C12.2253 13.383 11.6875 13.481 11.1542 13.4116C11.1435 13.4101 11.1328 13.4081 11.1225 13.4066C11.1183 13.4059 11.1137 13.4062 11.1092 13.4055C10.9882 13.3875 10.8673 13.3612 10.7475 13.3257Z" fill="#00730C"/>
<path d="M20.2232 38.2815C18.5581 37.3419 16.42 37.3961 15.1394 38.41C14.3013 39.0738 13.9854 40.0412 14.2696 41.0685C14.2753 41.0944 14.2826 41.12 14.2914 41.1455C14.6007 42.1625 15.3934 42.853 16.4169 42.9945C16.5485 43.0128 16.6813 43.0216 16.8144 43.0216C18.206 43.0216 19.6685 42.0431 20.713 40.3834C20.7199 40.3719 20.7267 40.3608 20.7332 40.349C21.1841 39.5388 21.0048 38.7724 20.2537 38.2998C20.2438 38.2933 20.2335 38.2872 20.2232 38.2815ZM19.4618 39.6216C18.4665 41.1928 17.3084 41.6399 16.6179 41.5438C16.1564 41.4801 15.8367 41.1947 15.6921 40.7187C15.6902 40.7114 15.6883 40.7045 15.6864 40.6973C15.551 40.2308 15.6696 39.8585 16.0484 39.5582C16.7522 39.0009 18.2274 38.846 19.4862 39.5472C19.4893 39.5491 19.4923 39.551 19.495 39.5533C19.4873 39.5716 19.4767 39.5941 19.4618 39.6216Z" fill="#00730C"/>
<path d="M28.8979 35.9002C29.0077 34.9836 28.5515 34.3431 27.6768 34.1871C27.6634 34.1844 27.6501 34.1825 27.6363 34.1809C25.7385 33.9498 23.7831 34.8169 22.9878 36.2424C22.4674 37.1743 22.5441 38.1875 23.1968 39.0279C23.2105 39.0474 23.225 39.0661 23.2407 39.0844C23.7652 39.7283 24.4862 40.0758 25.2533 40.0758C25.4723 40.0758 25.6947 40.0476 25.9174 39.99C27.3888 39.6077 28.529 38.0552 28.8925 35.9369C28.8948 35.9246 28.8967 35.9124 28.8979 35.9002ZM27.446 35.7091C27.1255 37.5421 26.2253 38.397 25.5493 38.5724C25.1007 38.6888 24.699 38.5495 24.3847 38.1704C24.379 38.1623 24.3729 38.1543 24.3668 38.1467C24.0639 37.7675 24.0311 37.378 24.2664 36.9561C24.7036 36.1734 26.0067 35.4673 27.4368 35.6321C27.4418 35.6328 27.4464 35.634 27.4506 35.6347C27.4502 35.6546 27.449 35.679 27.446 35.7091Z" fill="#00730C"/>
<path d="M28.526 44.4115C29.0517 45.0631 29.7776 45.4156 30.5497 45.4156C30.7694 45.4156 30.9926 45.387 31.2161 45.3286C32.6874 44.9456 33.8265 43.3915 34.1885 41.2736C34.1904 41.2618 34.1923 41.2499 34.1939 41.2377C34.3045 40.3188 33.8479 39.679 32.9724 39.5265C32.9602 39.5245 32.948 39.5226 32.9358 39.5211C31.0372 39.288 29.0818 40.1547 28.2845 41.5814C27.7615 42.5179 27.8405 43.5357 28.5008 44.3784C28.5088 44.3898 28.5172 44.4009 28.526 44.4115ZM29.5628 42.2955C30.0011 41.5112 31.3069 40.8048 32.7367 40.9722C32.7401 40.9726 32.7431 40.9734 32.7462 40.9741C32.7458 40.9932 32.7447 41.0172 32.7416 41.0466C32.4227 42.8796 31.5228 43.7356 30.8468 43.9114C30.4005 44.0278 29.9996 43.8908 29.6853 43.5159C29.675 43.5021 29.6647 43.4888 29.6536 43.4758C29.3591 43.1001 29.3294 42.714 29.5628 42.2955Z" fill="#00730C"/>
</g>
<defs>
<clipPath id="clip0_673_53344">
<rect width="50" height="50" fill="white"/>
</clipPath>
</defs>
</svg>
