<svg width="21" height="21" viewBox="0 0 21 21" fill="none" xmlns="http://www.w3.org/2000/svg">
<mask id="mask0_673_25654" style="mask-type:alpha" maskUnits="userSpaceOnUse" x="0" y="0" width="21" height="21">
<rect x="0.633301" y="0.799805" width="20" height="20" fill="#C4C4C4"/>
</mask>
<g mask="url(#mask0_673_25654)">
<path d="M18.2544 9.49387V7.33887H17.132V9.49387H14.8872V10.5714H17.132V12.7264H18.2544V10.5714H20.4992V9.49387H18.2544Z" fill="white"/>
<path d="M7.25179 9.36159V11.8949H10.8352C10.3121 13.3693 8.90352 14.4283 7.25179 14.4283C5.15672 14.4283 3.45179 12.7233 3.45179 10.6283C3.45179 8.53319 5.15672 6.82825 7.25179 6.82825C8.15999 6.82825 9.03399 7.15379 9.71292 7.74532L11.3773 5.83519C10.2373 4.84212 8.77306 4.29492 7.25179 4.29492C3.75959 4.29492 0.918457 7.13605 0.918457 10.6283C0.918457 14.1205 3.75959 16.9616 7.25179 16.9616C10.744 16.9616 13.5851 14.1205 13.5851 10.6283V9.36159H7.25179Z" fill="white"/>
</g>
</svg>
