<svg width="21" height="20" viewBox="0 0 21 20" fill="none" xmlns="http://www.w3.org/2000/svg">
<path d="M17.9255 17.6846V17.684H17.9291V12.305C17.9291 9.67354 17.3626 7.64648 14.2863 7.64648C12.8074 7.64648 11.815 8.45804 11.4098 9.22743H11.367V7.89215H8.4502V17.684H11.4874V12.8354C11.4874 11.5588 11.7294 10.3244 13.3104 10.3244C14.8681 10.3244 14.8913 11.7813 14.8913 12.9173V17.6846H17.9255Z" fill="white"/>
<path d="M3.40918 7.89307H6.45007V17.6849H3.40918V7.89307Z" fill="white"/>
<path d="M4.92773 2.77588C3.95545 2.77588 3.1665 3.56482 3.1665 4.5371C3.1665 5.50938 3.95545 6.31483 4.92773 6.31483C5.9 6.31483 6.68895 5.50938 6.68895 4.5371C6.68834 3.56482 5.89939 2.77588 4.92773 2.77588V2.77588Z" fill="white"/>
</svg>
