<svg width="21" height="20" viewBox="0 0 21 20" fill="none" xmlns="http://www.w3.org/2000/svg">
<mask id="mask0_673_25655" style="mask-type:alpha" maskUnits="userSpaceOnUse" x="2" y="3" width="17" height="17">
<rect x="2.34326" y="3.17627" width="16" height="16" fill="#C4C4C4"/>
</mask>
<g mask="url(#mask0_673_25655)">
<path d="M18.3433 6.21527C17.7483 6.47627 17.1143 6.64927 16.4533 6.73327C17.1333 6.32727 17.6523 5.68927 17.8963 4.92027C17.2623 5.29827 16.5623 5.56527 15.8163 5.71427C15.2143 5.07327 14.3563 4.67627 13.4203 4.67627C11.6043 4.67627 10.1423 6.15027 10.1423 7.95727C10.1423 8.21727 10.1643 8.46727 10.2183 8.70527C7.49126 8.57227 5.07826 7.26527 3.45726 5.27427C3.17426 5.76527 3.00826 6.32727 3.00826 6.93227C3.00826 8.06827 3.59326 9.07527 4.46526 9.65827C3.93826 9.64827 3.42126 9.49527 2.98326 9.25427C2.98326 9.26427 2.98326 9.27727 2.98326 9.29027C2.98326 10.8843 4.12026 12.2083 5.61126 12.5133C5.34426 12.5863 5.05326 12.6213 4.75126 12.6213C4.54126 12.6213 4.32926 12.6093 4.13026 12.5653C4.55526 13.8643 5.76126 14.8193 7.19526 14.8503C6.07926 15.7233 4.66226 16.2493 3.12826 16.2493C2.85926 16.2493 2.60126 16.2373 2.34326 16.2043C3.79626 17.1413 5.51826 17.6763 7.37526 17.6763C13.4113 17.6763 16.7113 12.6763 16.7113 8.34227C16.7113 8.19727 16.7063 8.05727 16.6993 7.91827C17.3503 7.45627 17.8973 6.87927 18.3433 6.21527Z" fill="white"/>
</g>
</svg>
